<?xml version="1.0" standalone="no"?>
<!DOCTYPE svg PUBLIC "-//W3C//DTD SVG 20010904//EN"
 "http://www.w3.org/TR/2001/REC-SVG-20010904/DTD/svg10.dtd">
<svg version="1.0" xmlns="http://www.w3.org/2000/svg"
 width="1184.000000pt" height="1184.000000pt" viewBox="0 0 1184.000000 1184.000000"
 preserveAspectRatio="xMidYMid meet">
<metadata>
Created by potrace 1.16, written by Peter Selinger 2001-2019
</metadata>
<g transform="translate(0.000000,1184.000000) scale(0.100000,-0.100000)"
fill="#000000" stroke="none">
<path d="M5550 7215 l0 -185 -370 0 -370 0 0 -185 0 -185 -185 0 -185 0 0
-185 0 -185 -185 0 -185 0 0 -185 0 -185 -185 0 -185 0 0 -370 0 -370 -185 0
-185 0 0 -555 0 -555 185 0 185 0 0 -185 0 -185 185 0 185 0 0 -185 0 -185
185 0 185 0 0 -185 0 -185 -185 0 -185 0 0 -925 0 -925 185 0 185 0 0 -555 0
-555 1295 0 1295 0 0 185 0 185 185 0 185 0 0 185 0 185 -185 0 -185 0 0 185
0 185 185 0 185 0 0 185 0 185 185 0 185 0 0 555 0 555 -185 0 -185 0 0 185 0
185 -185 0 -185 0 0 185 0 185 370 0 370 0 0 185 0 185 185 0 185 0 0 185 0
185 185 0 185 0 0 370 0 370 -185 0 -185 0 0 185 0 185 -370 0 -370 0 0 -185
0 -185 370 0 370 0 0 -370 0 -370 -925 0 -925 0 0 185 0 185 -185 0 -185 0 0
-185 0 -185 -185 0 -185 0 0 -185 0 -185 370 0 370 0 0 -185 0 -185 -555 0
-555 0 0 185 0 185 -370 0 -370 0 0 185 0 185 -185 0 -185 0 0 185 0 185 185
0 185 0 0 370 0 370 185 0 185 0 0 -555 0 -555 185 0 185 0 0 185 0 185 185 0
185 0 0 185 0 185 -185 0 -185 0 0 185 0 185 185 0 185 0 0 185 0 185 185 0
185 0 0 -370 0 -370 185 0 185 0 0 370 0 370 185 0 185 0 0 -370 0 -370 185 0
185 0 0 370 0 370 740 0 740 0 0 185 0 185 -185 0 -185 0 0 185 0 185 -185 0
-185 0 0 370 0 370 -185 0 -185 0 0 185 0 185 -925 0 -925 0 0 -185z m1480
-370 l0 -185 185 0 185 0 0 -185 0 -185 -555 0 -555 0 0 185 0 185 185 0 185
0 0 185 0 185 185 0 185 0 0 -185z m-2590 -1480 l0 -185 -185 0 -185 0 0 -370
0 -370 -185 0 -185 0 0 370 0 370 185 0 185 0 0 185 0 185 185 0 185 0 0 -185z
m2590 -2590 l0 -185 185 0 185 0 0 -555 0 -555 -185 0 -185 0 0 185 0 185
-555 0 -555 0 0 370 0 370 370 0 370 0 0 185 0 185 185 0 185 0 0 -185z
m-1480 -740 l0 -185 -185 0 -185 0 0 -370 0 -370 -370 0 -370 0 0 555 0 555
555 0 555 0 0 -185z"/>
</g>
</svg>
